<svg width="99" height="63" viewBox="0 0 99 63" fill="none" xmlns="http://www.w3.org/2000/svg">
    <path fill-rule="evenodd" clip-rule="evenodd" d="M46.1175 62.9784C28.9522 62.9784 15.0337 48.8809 15.0337 31.4914C15.0337 14.1001 28.9522 0 46.1175 0C63.289 0 77.209 14.1001 77.209 31.4914C77.209 48.8809 63.289 62.9784 46.1175 62.9784Z" fill="#C30000"/>
    <path fill-rule="evenodd" clip-rule="evenodd" d="M0 45.2391L6.35403 29.3105H12.4593L6.11334 45.2391H0Z" fill="#C30000"/>
    <path fill-rule="evenodd" clip-rule="evenodd" d="M78.4067 45.2391L84.6794 29.3105H88.0079L81.7356 45.2391H78.4067Z" fill="#C30000"/>
    <path fill-rule="evenodd" clip-rule="evenodd" d="M90.7427 45.2391L97.0143 29.3105H98.7819L92.5096 45.2391H90.7427Z" fill="#C30000"/>
    <path fill-rule="evenodd" clip-rule="evenodd" d="M72.6345 29.3105H67.1082C67.1082 29.3105 66.7273 29.3105 66.5926 29.6513L63.5342 39.1344L60.4785 29.6513C60.3438 29.3105 59.9607 29.3105 59.9607 29.3105H49.3349C49.1049 29.3105 48.912 29.5051 48.912 29.7366V32.9571C48.912 30.4024 46.2284 29.3105 44.6569 29.3105C41.1378 29.3105 38.782 31.6583 38.0485 35.2277C38.0088 32.8598 37.8145 32.0113 37.1848 31.1424C36.8955 30.7167 36.4774 30.3588 36.0222 30.0628C35.0848 29.5066 34.2431 29.3105 32.4342 29.3105H30.3103C30.3103 29.3105 29.9265 29.3105 29.7911 29.6513L27.8585 34.5023V29.7366C27.8585 29.5051 27.6672 29.3105 27.4375 29.3105H22.5228C22.5228 29.3105 22.1434 29.3105 22.0054 29.6513L19.9963 34.6954C19.9963 34.6954 19.7957 35.1997 20.2543 35.1997H22.1434V44.8115C22.1434 45.0501 22.3289 45.2391 22.5655 45.2391H27.4375C27.6672 45.2391 27.8585 45.0501 27.8585 44.8115V35.1997H29.7576C30.8473 35.1997 31.0781 35.2299 31.502 35.4301C31.7574 35.5278 31.9875 35.7254 32.113 35.9531C32.3698 36.443 32.4342 37.0312 32.4342 38.7658V44.8115C32.4342 45.0501 32.6234 45.2391 32.8571 45.2391H37.5267C37.5267 45.2391 38.0544 45.2391 38.2631 44.7113L39.298 42.1204C40.6741 44.0727 42.9389 45.2391 45.7536 45.2391H46.3686C46.3686 45.2391 46.8997 45.2391 47.1098 44.7113L48.912 40.1902V44.8115C48.912 45.0501 49.1049 45.2391 49.3349 45.2391H54.1016C54.1016 45.2391 54.6275 45.2391 54.8388 44.7113C54.8388 44.7113 56.7452 39.9169 56.7525 39.8808H56.7555C56.8287 39.4819 56.3311 39.4819 56.3311 39.4819H54.6298V31.2553L59.9827 44.7113C60.1918 45.2391 60.7188 45.2391 60.7188 45.2391H66.35C66.35 45.2391 66.88 45.2391 67.089 44.7113L73.0235 29.8265C73.2289 29.3105 72.6345 29.3105 72.6345 29.3105V29.3105ZM48.912 39.4819H45.7102C44.4357 39.4819 43.3989 38.4366 43.3989 37.1442C43.3989 35.854 44.4357 34.802 45.7102 34.802H46.6056C47.8768 34.802 48.912 35.854 48.912 37.1442V39.4819Z" fill="white"/>
</svg>
