<svg width="66" height="100" viewBox="0 0 66 100" fill="none" xmlns="http://www.w3.org/2000/svg">
<path fill-rule="evenodd" clip-rule="evenodd" d="M51.4865 47.5656C49.831 52.9186 46.5898 57.3619 42.4362 60.0812L42.6489 62.4649L42.6477 62.5619L40.4024 82.2114H26.1619L26.1028 81.7986L23.3498 62.528L23.4517 60.1179C19.2771 57.4058 16.0176 52.9552 14.3527 47.588C14.2962 47.5933 14.239 47.596 14.1811 47.596C13.1042 47.596 12.251 46.6582 12.251 45.5222V39.0938C12.251 38.3323 12.6343 37.6595 13.2114 37.2986C14.1118 25.2974 22.5705 15.8652 32.9157 15.8652C43.233 15.8652 51.6746 25.2466 52.6134 37.2013C53.2873 37.5277 53.7491 38.2569 53.7491 39.0938V45.5222C53.7491 46.6588 52.8971 47.596 51.819 47.596C51.7054 47.596 51.5943 47.5856 51.4865 47.5656Z" fill="#F1F1F1"/>
<path fill-rule="evenodd" clip-rule="evenodd" d="M41.9345 60.7464C41.8535 65.0375 37.8843 69.4398 32.9999 69.4398C28.0942 69.4398 24.1118 64.9991 24.0644 60.6904C21.5226 61.3323 17.6426 63.2683 14.4401 66.5036C11.3389 69.6366 8.87305 74.3459 8.87305 77.9992V100H57.1267V77.9992C57.1267 74.3385 54.6077 69.6212 51.4491 66.4845C48.2906 63.348 44.4926 61.4382 41.9345 60.7464Z" fill="#0056B4"/>
<path fill-rule="evenodd" clip-rule="evenodd" d="M51.1686 46.9455C51.3642 47.054 51.5853 47.115 51.8191 47.115C52.6192 47.115 53.2667 46.4034 53.2667 45.522V39.0936C53.2667 38.3394 52.7927 37.7089 52.1546 37.5425C51.9056 33.9426 48.3647 33.5675 46.5552 33.6134C45.9266 33.6293 18.8552 33.696 18.524 33.696C18.524 33.696 13.9745 32.9983 13.674 37.6002C13.1251 37.8264 12.7336 38.4091 12.7336 39.0936V45.522C12.7336 46.4034 13.3828 47.115 14.1812 47.115C14.3582 47.115 14.5276 47.0802 14.6843 47.0165C16.3002 52.5626 19.6363 57.1453 23.9288 59.8506L23.9447 59.8834L23.9418 59.9513C20.264 60.2925 17.1629 60.7688 15.3415 61.279C15.3415 61.279 9.26515 52.9226 9.88241 37.3873C9.88241 37.3873 12.0676 11.2847 32.8706 11.5399C53.6717 11.7961 55.533 33.696 55.533 33.696C57.1447 40.4449 55.6159 52.5149 51.4379 61.5381C49.3026 60.5641 45.9791 59.9782 42.1691 59.6797C46.3515 56.9428 49.5936 52.4082 51.1686 46.9455Z" fill="#634689"/>
<path fill-rule="evenodd" clip-rule="evenodd" d="M26.1004 42.1837C24.8533 42.2842 24.5043 40.317 24.88 39.0322C24.9507 38.7888 25.3635 37.6802 26.0943 37.6802C26.8243 37.6802 27.1466 38.2861 27.1914 38.3903C27.7283 39.6428 27.4646 42.073 26.1004 42.1837Z" fill="#262626"/>
<path fill-rule="evenodd" clip-rule="evenodd" d="M40.5636 42.1837C41.8107 42.2842 42.1597 40.317 41.7839 39.0322C41.7133 38.7888 41.3005 37.6802 40.5697 37.6802C39.8397 37.6802 39.5174 38.2861 39.4726 38.3903C38.9357 39.6428 39.1994 42.073 40.5636 42.1837Z" fill="#262626"/>
<path d="M33.7945 44.1224C34.5402 43.9952 35.0495 44.075 35.2319 44.3232C35.9204 45.2612 35.7002 46.2536 34.519 47.0682C33.898 47.4964 33.0432 47.6471 32.5907 47.4251C32.3694 47.3165 32.1106 47.4273 32.0127 47.6727C31.9148 47.918 32.0148 48.2049 32.236 48.3134C32.984 48.6804 34.1342 48.4776 34.9819 47.8931C36.587 46.7861 36.9543 45.1307 35.9114 43.7098C35.4701 43.1094 34.6889 42.9869 33.6612 43.1622C33.422 43.2031 33.258 43.4511 33.2948 43.7162C33.3316 43.9814 33.5553 44.1632 33.7945 44.1224Z" fill="#262626"/>
<path d="M39.1871 50.5689C39.1433 50.6613 39.0428 50.8384 38.8814 51.0716C38.6082 51.4664 38.2651 51.8621 37.8483 52.2312C36.6065 53.331 34.9901 53.9669 32.9329 53.9087C30.927 53.852 29.3178 53.2259 28.0562 52.2162C27.593 51.8455 27.2106 51.4485 26.9049 51.0528C26.7247 50.8195 26.6121 50.6425 26.5629 50.5503C26.4445 50.3286 26.1535 50.2373 25.9129 50.3464C25.6723 50.4555 25.5732 50.7238 25.6916 50.9456C25.7629 51.0791 25.9017 51.2973 26.1139 51.572C26.4622 52.0229 26.8954 52.4726 27.4196 52.8921C28.8438 54.0319 30.6638 54.7401 32.9031 54.8034C35.235 54.8693 37.0992 54.1359 38.5211 52.8766C38.9965 52.4556 39.3874 52.0048 39.7001 51.553C39.8902 51.2783 40.0139 51.0603 40.077 50.927C40.1843 50.7005 40.0721 50.4367 39.8263 50.3378C39.5806 50.2389 39.2944 50.3424 39.1871 50.5689Z" fill="#262626"/>
</svg>
