<svg width="35" height="29" viewBox="0 0 35 29" fill="none" xmlns="http://www.w3.org/2000/svg">
    <path fill-rule="evenodd" clip-rule="evenodd"
          d="M26.0206 19.3899H8.51872L10.2452 11.4902H24.2946L26.0206 19.3899ZM5.44481 11.4902L1.61914 28.9997H6.41958L8.32017 20.3001H26.2197L28.1203 28.9997H32.9207L29.0945 11.4902H5.44481Z"
          fill="#262626"/>
    <path fill-rule="evenodd" clip-rule="evenodd" d="M28.1649 5.5625L23.4648 12.4027H29.3312L34.0313 5.5625H28.1649Z"
          fill="#262626"/>
    <path fill-rule="evenodd" clip-rule="evenodd" d="M4.7001 5.5625L0 12.4027H5.86635L10.5664 5.5625H4.7001Z"
          fill="#262626"/>
    <path fill-rule="evenodd" clip-rule="evenodd" d="M10.5673 5.5625L5.86719 12.4027H11.7335L16.4336 5.5625H10.5673Z"
          fill="#FFAA33"/>
    <path fill-rule="evenodd" clip-rule="evenodd" d="M16.4325 5.5625L11.7324 12.4027H17.5988L22.2989 5.5625H16.4325Z"
          fill="#262626"/>
    <path fill-rule="evenodd" clip-rule="evenodd" d="M22.2997 5.5625L17.5996 12.4027H23.466L28.1661 5.5625H22.2997Z"
          fill="#FFAA33"/>
    <path fill-rule="evenodd" clip-rule="evenodd" d="M0 5.5625V12.4027L4.7001 5.5625H0Z" fill="#FFAA33"/>
    <path fill-rule="evenodd" clip-rule="evenodd" d="M34.0321 5.5625L29.332 12.4027H34.0321V5.5625Z" fill="#FFAA33"/>
    <path fill-rule="evenodd" clip-rule="evenodd"
          d="M5.39648 2.73611C5.39648 4.24714 6.60481 5.4717 8.09463 5.4717C9.58499 5.4717 10.7933 4.24714 10.7933 2.73611C10.7933 1.22509 9.58499 0 8.09463 0C6.60481 0 5.39648 1.22509 5.39648 2.73611Z"
          fill="#BA3A26"/>
    <path fill-rule="evenodd" clip-rule="evenodd"
          d="M22.666 2.73611C22.666 4.24714 23.8743 5.4717 25.3647 5.4717C26.855 5.4717 28.0628 4.24714 28.0628 2.73611C28.0628 1.22509 26.855 0 25.3647 0C23.8743 0 22.666 1.22509 22.666 2.73611Z"
          fill="#BA3A26"/>
</svg>
