<svg width="64" height="88" viewBox="0 0 64 88" fill="none" xmlns="http://www.w3.org/2000/svg">
<g clip-path="url(#clip0_5120_47839)">
<path fill-rule="evenodd" clip-rule="evenodd" d="M59.84 7.65039H4.15763C1.85956 7.65039 0 9.54159 0 11.8782V83.2731C0 83.7089 0.0651852 84.1326 0.186074 84.5275C0.388741 85.1908 0.749037 85.7819 1.22074 86.2622C1.312 86.3537 1.41156 86.4488 1.51704 86.533C2.12978 87.0507 2.89541 87.3877 3.73096 87.4768C3.87319 87.4913 4.01541 87.4997 4.15763 87.4997H59.84C62.1381 87.4997 64 85.6061 64 83.2731V11.8782C64 9.54159 62.1381 7.65039 59.84 7.65039" fill="#4F4F4F"/>
<path fill-rule="evenodd" clip-rule="evenodd" d="M5.92578 25.2548V78.108C5.92578 80.0038 7.40816 81.5409 9.23752 81.5409H53.5789C55.4064 81.5409 56.8887 80.0038 56.8887 78.108V17.0423C56.8887 15.1464 55.4064 13.6094 53.5789 13.6094H18.1946L5.92578 25.2548Z" fill="white"/>
<path fill-rule="evenodd" clip-rule="evenodd" d="M18.1946 13.6094V21.7197C18.1946 23.6724 16.6166 25.2548 14.6692 25.2548H5.92578L18.1946 13.6094Z" fill="#C9C9C9"/>
<path fill-rule="evenodd" clip-rule="evenodd" d="M23.8574 39.811H45.5639V37.8701H23.8574V39.811Z" fill="#A0A0A0"/>
<path fill-rule="evenodd" clip-rule="evenodd" d="M23.8574 46.604H45.5639V44.6631H23.8574V46.604Z" fill="#A0A0A0"/>
<path fill-rule="evenodd" clip-rule="evenodd" d="M23.8574 52.4272H45.5639V50.4863H23.8574V52.4272Z" fill="#A0A0A0"/>
<path fill-rule="evenodd" clip-rule="evenodd" d="M23.8574 59.2202H45.5639V57.2793H23.8574V59.2202Z" fill="#A0A0A0"/>
<path fill-rule="evenodd" clip-rule="evenodd" d="M21.9698 35.9336H20.9711H18.2497H17.251V36.9935V39.7259V40.7858H18.2497H20.9711H21.9698V39.7259V36.9935V35.9336ZM18.2497 39.7259H20.9711V36.9935H18.2497V39.7259Z" fill="#A0A0A0"/>
<path fill-rule="evenodd" clip-rule="evenodd" d="M21.9698 42.5635H20.9711H18.2497H17.251V43.6236V46.3556V47.4157H18.2497H20.9711H21.9698V46.3556V43.6236V42.5635ZM18.2497 46.3556H20.9711V43.6236H18.2497V46.3556Z" fill="#A0A0A0"/>
<path fill-rule="evenodd" clip-rule="evenodd" d="M21.9698 49.1934H20.9711H18.2497H17.251V50.2537V52.9852V54.0456H18.2497H20.9711H21.9698V52.9852V50.2537V49.1934ZM18.2497 52.9852H20.9711V50.2537H18.2497V52.9852Z" fill="#A0A0A0"/>
<path fill-rule="evenodd" clip-rule="evenodd" d="M21.9698 55.8232H20.9711H18.2497H17.251V56.8834V59.6154V60.6755H18.2497H20.9711H21.9698V59.6154V56.8834V55.8232ZM18.2497 59.6154H20.9711V56.8834H18.2497V59.6154Z" fill="#A0A0A0"/>
<path d="M18.7072 37.6475L20.8041 33.9883L21.9697 35.2088L18.7764 40.7814L16.3071 36.9657L17.4168 35.6535L18.7072 37.6475Z" fill="#262626"/>
<path d="M20.569 39.8105L21.9697 40.8761L18.8041 46.6037L16.3071 42.6033L17.654 41.4462L18.7206 43.1549L20.569 39.8105Z" fill="#262626"/>
<path fill-rule="evenodd" clip-rule="evenodd" d="M32.5941 10.3824C31.8697 10.3824 31.2836 9.77351 31.2836 9.01776C31.2836 8.26202 31.8697 7.64948 32.5941 7.64948C33.3151 7.64948 33.9035 8.26202 33.9035 9.01776C33.9035 9.77351 33.3151 10.3824 32.5941 10.3824M40.6843 4.79498H35.8092V3.85512C35.8092 2.00186 34.3684 0.5 32.5941 0.5C30.8141 0.5 29.3767 2.00186 29.3767 3.85512V4.79498H24.5016C22.0987 4.79498 20.1479 6.82996 20.1479 9.33787V14.8014H45.0368V9.33787C45.0368 6.82996 43.0873 4.79498 40.6843 4.79498" fill="#262626"/>
</g>
<defs>
<clipPath id="clip0_5120_47839">
<rect width="64" height="87" fill="white" transform="translate(0 0.5)"/>
</clipPath>
</defs>
</svg>
