<svg width="40" height="50" viewBox="0 0 40 50" fill="none" xmlns="http://www.w3.org/2000/svg">
<path d="M16.8333 39.25H23.1666V43.04C23.1666 43.5702 22.7368 44 22.2066 44H17.7933C17.2631 44 16.8333 43.5702 16.8333 43.04V39.25Z" fill="#A0A0A0"/>
<path fill-rule="evenodd" clip-rule="evenodd" d="M19.9999 13.917C13.0157 13.917 7.33325 19.5233 7.33325 26.414C7.33325 31.855 10.9014 36.6385 16.1025 38.292V39.8724C16.1025 40.403 16.539 40.8337 17.0768 40.8337H22.923C23.4608 40.8337 23.8974 40.403 23.8974 39.8724V38.292C29.0985 36.6366 32.6666 31.855 32.6666 26.414C32.6666 19.5233 26.9841 13.917 19.9999 13.917" fill="#FFAA33"/>
<path fill-rule="evenodd" clip-rule="evenodd" d="M21.5833 42.417H18.4166C17.5426 42.417 16.8333 42.7717 16.8333 43.2087C16.8333 43.6457 17.5426 44.0003 18.4166 44.0003H21.5833C22.4573 44.0003 23.1666 43.6457 23.1666 43.2087C23.1666 42.7717 22.4573 42.417 21.5833 42.417" fill="#4F4F4F"/>
<path fill-rule="evenodd" clip-rule="evenodd" d="M23.5625 39.25H16.4375C15.782 39.25 15.25 39.6047 15.25 40.0417C15.25 40.4787 15.782 40.8333 16.4375 40.8333H23.5625C24.218 40.8333 24.75 40.4787 24.75 40.0417C24.75 39.6047 24.218 39.25 23.5625 39.25" fill="#4F4F4F"/>
<path fill-rule="evenodd" clip-rule="evenodd" d="M19.9999 12.3333C20.4559 12.3333 20.826 11.8604 20.826 11.2778V7.05556C20.826 6.47289 20.4559 6 19.9999 6C19.5439 6 19.1738 6.47289 19.1738 7.05556V11.2778C19.1738 11.8604 19.5439 12.3333 19.9999 12.3333" fill="#FFAA33"/>
<path fill-rule="evenodd" clip-rule="evenodd" d="M38.1739 24.1426H34.8695C34.4135 24.1426 34.0435 24.4972 34.0435 24.9342C34.0435 25.3712 34.4135 25.7259 34.8695 25.7259H38.1739C38.6299 25.7259 39 25.3712 39 24.9342C39 24.4972 38.6299 24.1426 38.1739 24.1426" fill="#FFAA33"/>
<path fill-rule="evenodd" clip-rule="evenodd" d="M5.13043 24.1426H1.82609C1.37009 24.1426 1 24.4972 1 24.9342C1 25.3712 1.37009 25.7259 1.82609 25.7259H5.13043C5.58643 25.7259 5.95652 25.3712 5.95652 24.9342C5.95652 24.4972 5.58643 24.1426 5.13043 24.1426" fill="#FFAA33"/>
<path fill-rule="evenodd" clip-rule="evenodd" d="M9.55822 15.2778C9.71383 15.427 9.91708 15.5 10.1203 15.5C10.322 15.5 10.5252 15.427 10.6808 15.2778C10.9905 14.9811 10.9905 14.4986 10.6808 14.2019L7.31139 10.9726C7.00176 10.6758 6.4984 10.6758 6.18877 10.9726C5.87913 11.2693 5.87913 11.7517 6.18877 12.0485L9.55822 15.2778Z" fill="#FFAA33"/>
<path fill-rule="evenodd" clip-rule="evenodd" d="M29.881 15.5C30.0842 15.5 30.2874 15.4255 30.4429 15.2779L33.8113 12.0481C34.1208 11.7514 34.1208 11.2707 33.8113 10.9725C33.5002 10.6758 32.9986 10.6758 32.689 10.9725L29.3191 14.2008C29.0095 14.499 29.0095 14.9797 29.3191 15.2779C29.4746 15.4255 29.6778 15.5 29.881 15.5" fill="#FFAA33"/>
</svg>
