<svg width="40" height="50" viewBox="0 0 40 50" fill="none" xmlns="http://www.w3.org/2000/svg">
<path fill-rule="evenodd" clip-rule="evenodd" d="M36.53 4.10938H3.46859C2.10411 4.10938 1 5.19627 1 6.53915V47.5707C1 47.8212 1.0387 48.0647 1.11048 48.2916C1.23081 48.6728 1.44474 49.0125 1.72481 49.2886C1.779 49.3411 1.83811 49.3958 1.90074 49.4442C2.26456 49.7417 2.71915 49.9354 3.21526 49.9866C3.2997 49.9949 3.38415 49.9998 3.46859 49.9998H36.53C37.8945 49.9998 39 48.9115 39 47.5707V6.53915C39 5.19627 37.8945 4.10938 36.53 4.10938" fill="#4F4F4F"/>
<path fill-rule="evenodd" clip-rule="evenodd" d="M4.51855 14.2269V44.6023C4.51855 45.6919 5.39872 46.5753 6.4849 46.5753H32.8126C33.8977 46.5753 34.7778 45.6919 34.7778 44.6023V9.50711C34.7778 8.41754 33.8977 7.53418 32.8126 7.53418H11.8032L4.51855 14.2269Z" fill="white"/>
<path fill-rule="evenodd" clip-rule="evenodd" d="M11.8032 7.53418V12.1953C11.8032 13.3175 10.8662 14.2269 9.70996 14.2269H4.51855L11.8032 7.53418Z" fill="#C9C9C9"/>
<path fill-rule="evenodd" clip-rule="evenodd" d="M15.1653 22.592H28.0535V21.4766H15.1653V22.592Z" fill="#A0A0A0"/>
<path fill-rule="evenodd" clip-rule="evenodd" d="M15.1653 26.4963H28.0535V25.3809H15.1653V26.4963Z" fill="#A0A0A0"/>
<path fill-rule="evenodd" clip-rule="evenodd" d="M15.1653 29.843H28.0535V28.7275H15.1653V29.843Z" fill="#A0A0A0"/>
<path fill-rule="evenodd" clip-rule="evenodd" d="M15.1653 33.7473H28.0535V32.6318H15.1653V33.7473Z" fill="#A0A0A0"/>
<path fill-rule="evenodd" clip-rule="evenodd" d="M14.0445 20.3643H13.4515H11.8356H11.2427V20.9734V22.5438V23.1529H11.8356H13.4515H14.0445V22.5438V20.9734V20.3643ZM11.8356 22.5438H13.4515V20.9734H11.8356V22.5438Z" fill="#A0A0A0"/>
<path fill-rule="evenodd" clip-rule="evenodd" d="M14.0445 24.1738H13.4515H11.8356H11.2427V24.7831V26.3532V26.9625H11.8356H13.4515H14.0445V26.3532V24.7831V24.1738ZM11.8356 26.3532H13.4515V24.7831H11.8356V26.3532Z" fill="#A0A0A0"/>
<path fill-rule="evenodd" clip-rule="evenodd" d="M14.0445 27.9844H13.4515H11.8356H11.2427V28.5938V30.1636V30.773H11.8356H13.4515H14.0445V30.1636V28.5938V27.9844ZM11.8356 30.1636H13.4515V28.5938H11.8356V30.1636Z" fill="#A0A0A0"/>
<path fill-rule="evenodd" clip-rule="evenodd" d="M14.0445 31.7949H13.4515H11.8356H11.2427V32.4042V33.9743V34.5836H11.8356H13.4515H14.0445V33.9743V32.4042V31.7949ZM11.8356 33.9743H13.4515V32.4042H11.8356V33.9743Z" fill="#A0A0A0"/>
<path d="M12.1074 21.3491L13.3524 19.2461L14.0445 19.9475L12.1485 23.1502L10.6824 20.9573L11.3413 20.2031L12.1074 21.3491Z" fill="#262626"/>
<path d="M13.2128 22.5928L14.0445 23.2052L12.1649 26.4969L10.6824 24.1978L11.4821 23.5328L12.1153 24.5148L13.2128 22.5928Z" fill="#262626"/>
<path fill-rule="evenodd" clip-rule="evenodd" d="M20.3528 5.67956C19.9227 5.67956 19.5747 5.3296 19.5747 4.89527C19.5747 4.46093 19.9227 4.1089 20.3528 4.1089C20.7809 4.1089 21.1302 4.46093 21.1302 4.89527C21.1302 5.3296 20.7809 5.67956 20.3528 5.67956M25.1564 2.46838H22.2618V1.92823C22.2618 0.863138 21.4063 0 20.3528 0C19.2959 0 18.4425 0.863138 18.4425 1.92823V2.46838H15.5479C14.1211 2.46838 12.9629 3.63791 12.9629 5.07924V8.21918H27.7407V5.07924C27.7407 3.63791 26.5831 2.46838 25.1564 2.46838" fill="#262626"/>
</svg>
